<svg width="48" height="48" viewBox="0 0 48 48" fill="none" xmlns="http://www.w3.org/2000/svg">
<path d="M36.2214 15.6373C35.3358 15.0919 34.1845 15.0919 33.2104 15.6373L26.3025 19.8186L21.6088 22.5455L14.7011 26.727C13.8155 27.2723 12.6642 27.2723 11.69 26.727L6.19926 23.4546C5.31366 22.9093 4.69372 21.9094 4.69372 20.8185V14.3647C4.69372 13.2739 5.22509 12.2741 6.19926 11.7287L11.6015 8.5472C12.4871 8.00181 13.6383 8.00181 14.6126 8.5472L20.0148 11.7287C20.9003 12.2741 21.5203 13.2739 21.5203 14.3647V18.5461L26.214 15.7282V11.5469C26.214 10.4561 25.6827 9.4562 24.7085 8.91081L14.7011 2.91149C13.8155 2.36609 12.6642 2.36609 11.69 2.91149L1.50554 8.91081C0.531366 9.4562 0 10.4561 0 11.5469V23.6364C0 24.7271 0.531366 25.7271 1.50554 26.2724L11.69 32.2717C12.5757 32.8172 13.727 32.8172 14.7011 32.2717L21.6088 28.1813L26.3025 25.3635L33.2104 21.273C34.0959 20.7277 35.2472 20.7277 36.2214 21.273L41.6236 24.4545C42.5093 24.9999 43.1292 25.9998 43.1292 27.0905V33.5444C43.1292 34.6351 42.5978 35.635 41.6236 36.1804L36.2214 39.4528C35.3358 39.9982 34.1845 39.9982 33.2104 39.4528L27.8082 36.2713C26.9225 35.726 26.3025 34.7261 26.3025 33.6352V29.4539L21.6088 32.2717V36.4531C21.6088 37.5439 22.1402 38.5438 23.1144 39.0891L33.2989 45.0886C34.1845 45.6339 35.3358 45.6339 36.3099 45.0886L46.4945 39.0891C47.3801 38.5438 48 37.5439 48 36.4531V24.3636C48 23.2728 47.4686 22.2729 46.4945 21.7276L36.2214 15.6373Z" fill="#7950DD"/>
</svg>
