<svg width="48" height="48" viewBox="0 0 48 48" fill="none" xmlns="http://www.w3.org/2000/svg">
<path d="M10.4706 32.2429C10.7156 31.9981 11.0477 31.8606 11.394 31.8606H43.3456C43.9276 31.8606 44.219 32.5645 43.8072 32.9759L37.4937 39.2844C37.2488 39.5292 36.9167 39.6667 36.5704 39.6667H4.61874C4.03668 39.6667 3.7453 38.9629 4.15704 38.5515L10.4706 32.2429Z" fill="url(#paint0_linear_1538_6831)"/>
<path d="M10.4705 8.67474C10.7155 8.42998 11.0476 8.29248 11.3939 8.29248H43.3455C43.9275 8.29248 44.2189 8.99632 43.8071 9.40773L37.4936 15.7163C37.2486 15.961 36.9165 16.0985 36.5702 16.0985H4.61861C4.03656 16.0985 3.74518 15.3947 4.15692 14.9833L10.4705 8.67474Z" fill="url(#paint1_linear_1538_6831)"/>
<path d="M37.4937 20.3839C37.2488 20.1391 36.9167 20.0017 36.5704 20.0017H4.61874C4.03668 20.0017 3.7453 20.7055 4.15704 21.1169L10.4706 27.4254C10.7156 27.6703 11.0477 27.8078 11.394 27.8078H43.3456C43.9276 27.8078 44.219 27.1039 43.8072 26.6925L37.4937 20.3839Z" fill="url(#paint2_linear_1538_6831)"/>
<defs>
<linearGradient id="paint0_linear_1538_6831" x1="31.0308" y1="-0.313825" x2="8.91761" y2="42.0419" gradientUnits="userSpaceOnUse">
<stop stop-color="#00FFA3"/>
<stop offset="1" stop-color="#DC1FFF"/>
</linearGradient>
<linearGradient id="paint1_linear_1538_6831" x1="31.0307" y1="-0.313681" x2="8.91749" y2="42.042" gradientUnits="userSpaceOnUse">
<stop stop-color="#00FFA3"/>
<stop offset="1" stop-color="#DC1FFF"/>
</linearGradient>
<linearGradient id="paint2_linear_1538_6831" x1="31.0308" y1="-0.313585" x2="8.91761" y2="42.0421" gradientUnits="userSpaceOnUse">
<stop stop-color="#00FFA3"/>
<stop offset="1" stop-color="#DC1FFF"/>
</linearGradient>
</defs>
</svg>
